<svg width="40" height="37" viewBox="0 0 40 37" fill="none" xmlns="http://www.w3.org/2000/svg">
<path fill-rule="evenodd" clip-rule="evenodd" d="M31.9949 36.0053C36.8556 32.3567 40 26.5455 40 20C40 8.9543 31.0457 0 20 0C8.9543 0 0 8.9543 0 20C0 26.9824 3.57816 33.1292 9.00088 36.7065C9.0003 36.6378 9 36.5689 9 36.5C9 29.9494 11.6605 24.2904 15.5158 21.626C13.3941 20.1874 12 17.7565 12 15C12 10.5817 15.5817 7 20 7C24.4183 7 28 10.5817 28 15C28 17.5479 26.8089 19.8176 24.9532 21.2826C28.9929 23.7192 31.8588 29.3708 31.9949 36.0053Z" fill="#F472B6"/>
</svg>
