<svg width="22" height="22" viewBox="0 0 22 22" fill="none" xmlns="http://www.w3.org/2000/svg">
<path d="M0.632446 6.41393C3.56495 4.03823 7.22589 2.74443 10.9999 2.75002C14.9279 2.75002 18.5349 4.12227 21.3674 6.41393L19.6395 8.55252C17.1957 6.573 14.1449 5.49511 10.9999 5.50002C7.72745 5.50002 4.72078 6.64402 2.36036 8.55252L0.632446 6.41393ZM3.5117 9.97977C5.62975 8.26377 8.274 7.32926 10.9999 7.33335C13.8361 7.33335 16.4413 8.32427 18.4882 9.97885L16.7603 12.1184C15.1309 10.7985 13.0968 10.0799 10.9999 10.0834C8.81828 10.0834 6.81445 10.846 5.23961 12.1184L3.5117 9.97885V9.97977ZM6.39186 13.5456C7.69522 12.4895 9.32242 11.9143 10.9999 11.9167C12.7453 11.9167 14.3485 12.5263 15.608 13.5447L13.8801 15.6842C13.0654 15.0243 12.0484 14.6651 10.9999 14.6667C9.95153 14.6651 8.93451 15.0243 8.11978 15.6842L6.39186 13.5447V13.5456ZM9.27203 17.1114C9.76066 16.7152 10.3708 16.4993 10.9999 16.5C11.6544 16.5 12.2558 16.7292 12.7279 17.1105L10.9999 19.25L9.27203 17.1105V17.1114Z" fill="white"/>
</svg>
